<mxfile host="app.diagrams.net" agent="Mozilla/5.0 (Windows NT 10.0; Win64; x64) AppleWebKit/537.36 (KHTML, like Gecko) Chrome/130.0.0.0 Safari/537.36" version="24.8.3">
  <diagram id="C5RBs43oDa-KdzZeNtuy" name="Page-1">
    <mxGraphModel dx="1602" dy="1218" grid="1" gridSize="10" guides="1" tooltips="1" connect="1" arrows="1" fold="1" page="1" pageScale="1" pageWidth="827" pageHeight="1169" math="0" shadow="0">
      <root>
        <mxCell id="WIyWlLk6GJQsqaUBKTNV-0" />
        <mxCell id="WIyWlLk6GJQsqaUBKTNV-1" parent="WIyWlLk6GJQsqaUBKTNV-0" />
        <mxCell id="kXXIVfiEnRMr92jDZfJT-20" value="" style="edgeStyle=none;curved=1;rounded=0;orthogonalLoop=1;jettySize=auto;html=1;fontSize=12;startSize=8;endSize=8;" edge="1" parent="WIyWlLk6GJQsqaUBKTNV-1" source="kXXIVfiEnRMr92jDZfJT-0" target="kXXIVfiEnRMr92jDZfJT-19">
          <mxGeometry relative="1" as="geometry" />
        </mxCell>
        <mxCell id="kXXIVfiEnRMr92jDZfJT-0" value="" style="ellipse;whiteSpace=wrap;html=1;" vertex="1" parent="WIyWlLk6GJQsqaUBKTNV-1">
          <mxGeometry x="-10" width="80" height="50" as="geometry" />
        </mxCell>
        <mxCell id="kXXIVfiEnRMr92jDZfJT-5" value="" style="edgeStyle=none;curved=1;rounded=0;orthogonalLoop=1;jettySize=auto;html=1;fontSize=12;startSize=8;endSize=8;" edge="1" parent="WIyWlLk6GJQsqaUBKTNV-1" source="kXXIVfiEnRMr92jDZfJT-3" target="kXXIVfiEnRMr92jDZfJT-4">
          <mxGeometry relative="1" as="geometry" />
        </mxCell>
        <mxCell id="kXXIVfiEnRMr92jDZfJT-3" value="ask user to input width of room" style="shape=parallelogram;perimeter=parallelogramPerimeter;whiteSpace=wrap;html=1;fixedSize=1;" vertex="1" parent="WIyWlLk6GJQsqaUBKTNV-1">
          <mxGeometry x="220" y="180" width="120" height="60" as="geometry" />
        </mxCell>
        <mxCell id="kXXIVfiEnRMr92jDZfJT-7" value="" style="edgeStyle=none;curved=1;rounded=0;orthogonalLoop=1;jettySize=auto;html=1;fontSize=12;startSize=8;endSize=8;" edge="1" parent="WIyWlLk6GJQsqaUBKTNV-1" source="kXXIVfiEnRMr92jDZfJT-4" target="kXXIVfiEnRMr92jDZfJT-6">
          <mxGeometry relative="1" as="geometry" />
        </mxCell>
        <mxCell id="kXXIVfiEnRMr92jDZfJT-4" value="ask user to input width of room" style="shape=parallelogram;perimeter=parallelogramPerimeter;whiteSpace=wrap;html=1;fixedSize=1;" vertex="1" parent="WIyWlLk6GJQsqaUBKTNV-1">
          <mxGeometry x="220" y="290" width="120" height="60" as="geometry" />
        </mxCell>
        <mxCell id="kXXIVfiEnRMr92jDZfJT-12" value="" style="edgeStyle=none;curved=1;rounded=0;orthogonalLoop=1;jettySize=auto;html=1;fontSize=12;startSize=8;endSize=8;" edge="1" parent="WIyWlLk6GJQsqaUBKTNV-1" source="kXXIVfiEnRMr92jDZfJT-6" target="kXXIVfiEnRMr92jDZfJT-11">
          <mxGeometry relative="1" as="geometry" />
        </mxCell>
        <mxCell id="kXXIVfiEnRMr92jDZfJT-6" value="ask user what&amp;nbsp;&lt;div&gt;flooring type&amp;nbsp;&lt;/div&gt;" style="shape=parallelogram;perimeter=parallelogramPerimeter;whiteSpace=wrap;html=1;fixedSize=1;" vertex="1" parent="WIyWlLk6GJQsqaUBKTNV-1">
          <mxGeometry x="220" y="390" width="120" height="60" as="geometry" />
        </mxCell>
        <mxCell id="kXXIVfiEnRMr92jDZfJT-17" value="" style="edgeStyle=none;curved=1;rounded=0;orthogonalLoop=1;jettySize=auto;html=1;fontSize=12;startSize=8;endSize=8;" edge="1" parent="WIyWlLk6GJQsqaUBKTNV-1" source="kXXIVfiEnRMr92jDZfJT-11">
          <mxGeometry relative="1" as="geometry">
            <mxPoint x="380" y="220" as="targetPoint" />
            <Array as="points">
              <mxPoint x="410" y="530" />
            </Array>
          </mxGeometry>
        </mxCell>
        <mxCell id="kXXIVfiEnRMr92jDZfJT-11" value="calculate area of room" style="whiteSpace=wrap;html=1;" vertex="1" parent="WIyWlLk6GJQsqaUBKTNV-1">
          <mxGeometry x="220" y="500" width="120" height="60" as="geometry" />
        </mxCell>
        <mxCell id="kXXIVfiEnRMr92jDZfJT-29" value="" style="edgeStyle=none;curved=1;rounded=0;orthogonalLoop=1;jettySize=auto;html=1;fontSize=12;startSize=8;endSize=8;" edge="1" parent="WIyWlLk6GJQsqaUBKTNV-1" source="kXXIVfiEnRMr92jDZfJT-16" target="kXXIVfiEnRMr92jDZfJT-28">
          <mxGeometry relative="1" as="geometry" />
        </mxCell>
        <mxCell id="kXXIVfiEnRMr92jDZfJT-34" value="" style="edgeStyle=none;curved=1;rounded=0;orthogonalLoop=1;jettySize=auto;html=1;fontSize=12;startSize=8;endSize=8;" edge="1" parent="WIyWlLk6GJQsqaUBKTNV-1" source="kXXIVfiEnRMr92jDZfJT-16" target="kXXIVfiEnRMr92jDZfJT-33">
          <mxGeometry relative="1" as="geometry" />
        </mxCell>
        <mxCell id="kXXIVfiEnRMr92jDZfJT-16" value="if flooring type is hardwood" style="rhombus;whiteSpace=wrap;html=1;" vertex="1" parent="WIyWlLk6GJQsqaUBKTNV-1">
          <mxGeometry x="384" y="180" width="80" height="80" as="geometry" />
        </mxCell>
        <mxCell id="kXXIVfiEnRMr92jDZfJT-21" value="" style="edgeStyle=none;curved=1;rounded=0;orthogonalLoop=1;jettySize=auto;html=1;fontSize=12;startSize=8;endSize=8;" edge="1" parent="WIyWlLk6GJQsqaUBKTNV-1" source="kXXIVfiEnRMr92jDZfJT-22">
          <mxGeometry relative="1" as="geometry">
            <mxPoint x="150" y="60" as="targetPoint" />
          </mxGeometry>
        </mxCell>
        <mxCell id="kXXIVfiEnRMr92jDZfJT-24" value="" style="edgeStyle=none;curved=1;rounded=0;orthogonalLoop=1;jettySize=auto;html=1;fontSize=12;startSize=8;endSize=8;" edge="1" parent="WIyWlLk6GJQsqaUBKTNV-1" source="kXXIVfiEnRMr92jDZfJT-27" target="kXXIVfiEnRMr92jDZfJT-23">
          <mxGeometry relative="1" as="geometry" />
        </mxCell>
        <mxCell id="kXXIVfiEnRMr92jDZfJT-19" value="if check another equals yes" style="rhombus;whiteSpace=wrap;html=1;" vertex="1" parent="WIyWlLk6GJQsqaUBKTNV-1">
          <mxGeometry x="-60" y="90" width="80" height="80" as="geometry" />
        </mxCell>
        <mxCell id="kXXIVfiEnRMr92jDZfJT-26" value="" style="edgeStyle=none;curved=1;rounded=0;orthogonalLoop=1;jettySize=auto;html=1;fontSize=12;startSize=8;endSize=8;" edge="1" parent="WIyWlLk6GJQsqaUBKTNV-1" source="kXXIVfiEnRMr92jDZfJT-23" target="kXXIVfiEnRMr92jDZfJT-25">
          <mxGeometry relative="1" as="geometry" />
        </mxCell>
        <mxCell id="kXXIVfiEnRMr92jDZfJT-23" value="output program ending to user" style="shape=parallelogram;perimeter=parallelogramPerimeter;whiteSpace=wrap;html=1;fixedSize=1;" vertex="1" parent="WIyWlLk6GJQsqaUBKTNV-1">
          <mxGeometry x="-80" y="230" width="120" height="60" as="geometry" />
        </mxCell>
        <mxCell id="kXXIVfiEnRMr92jDZfJT-25" value="" style="ellipse;whiteSpace=wrap;html=1;" vertex="1" parent="WIyWlLk6GJQsqaUBKTNV-1">
          <mxGeometry x="-60" y="880" width="80" height="50" as="geometry" />
        </mxCell>
        <mxCell id="kXXIVfiEnRMr92jDZfJT-31" value="" style="edgeStyle=none;curved=1;rounded=0;orthogonalLoop=1;jettySize=auto;html=1;fontSize=12;startSize=8;endSize=8;" edge="1" parent="WIyWlLk6GJQsqaUBKTNV-1" source="kXXIVfiEnRMr92jDZfJT-28" target="kXXIVfiEnRMr92jDZfJT-30">
          <mxGeometry relative="1" as="geometry" />
        </mxCell>
        <mxCell id="kXXIVfiEnRMr92jDZfJT-36" value="" style="edgeStyle=none;curved=1;rounded=0;orthogonalLoop=1;jettySize=auto;html=1;fontSize=12;startSize=8;endSize=8;" edge="1" parent="WIyWlLk6GJQsqaUBKTNV-1" source="kXXIVfiEnRMr92jDZfJT-28" target="kXXIVfiEnRMr92jDZfJT-35">
          <mxGeometry relative="1" as="geometry" />
        </mxCell>
        <mxCell id="kXXIVfiEnRMr92jDZfJT-28" value="if flooring type is carpet" style="rhombus;whiteSpace=wrap;html=1;" vertex="1" parent="WIyWlLk6GJQsqaUBKTNV-1">
          <mxGeometry x="510" y="180" width="80" height="80" as="geometry" />
        </mxCell>
        <mxCell id="kXXIVfiEnRMr92jDZfJT-38" value="" style="edgeStyle=none;curved=1;rounded=0;orthogonalLoop=1;jettySize=auto;html=1;fontSize=12;startSize=8;endSize=8;" edge="1" parent="WIyWlLk6GJQsqaUBKTNV-1" source="kXXIVfiEnRMr92jDZfJT-30" target="kXXIVfiEnRMr92jDZfJT-37">
          <mxGeometry relative="1" as="geometry" />
        </mxCell>
        <mxCell id="kXXIVfiEnRMr92jDZfJT-30" value="of flooring type is tile" style="rhombus;whiteSpace=wrap;html=1;" vertex="1" parent="WIyWlLk6GJQsqaUBKTNV-1">
          <mxGeometry x="640" y="180" width="80" height="80" as="geometry" />
        </mxCell>
        <mxCell id="kXXIVfiEnRMr92jDZfJT-40" style="edgeStyle=none;curved=1;rounded=0;orthogonalLoop=1;jettySize=auto;html=1;entryX=0;entryY=0;entryDx=0;entryDy=0;fontSize=12;startSize=8;endSize=8;" edge="1" parent="WIyWlLk6GJQsqaUBKTNV-1" source="kXXIVfiEnRMr92jDZfJT-33" target="kXXIVfiEnRMr92jDZfJT-39">
          <mxGeometry relative="1" as="geometry" />
        </mxCell>
        <mxCell id="kXXIVfiEnRMr92jDZfJT-33" value="cost per sqft equals 1.39" style="whiteSpace=wrap;html=1;" vertex="1" parent="WIyWlLk6GJQsqaUBKTNV-1">
          <mxGeometry x="404" y="280" width="96" height="50" as="geometry" />
        </mxCell>
        <mxCell id="kXXIVfiEnRMr92jDZfJT-41" style="edgeStyle=none;curved=1;rounded=0;orthogonalLoop=1;jettySize=auto;html=1;entryX=0.5;entryY=0;entryDx=0;entryDy=0;fontSize=12;startSize=8;endSize=8;" edge="1" parent="WIyWlLk6GJQsqaUBKTNV-1" source="kXXIVfiEnRMr92jDZfJT-35" target="kXXIVfiEnRMr92jDZfJT-39">
          <mxGeometry relative="1" as="geometry" />
        </mxCell>
        <mxCell id="kXXIVfiEnRMr92jDZfJT-35" value="cost per sqft equals 3.99" style="whiteSpace=wrap;html=1;" vertex="1" parent="WIyWlLk6GJQsqaUBKTNV-1">
          <mxGeometry x="510" y="280" width="100" height="50" as="geometry" />
        </mxCell>
        <mxCell id="kXXIVfiEnRMr92jDZfJT-42" style="edgeStyle=none;curved=1;rounded=0;orthogonalLoop=1;jettySize=auto;html=1;entryX=1;entryY=0;entryDx=0;entryDy=0;fontSize=12;startSize=8;endSize=8;" edge="1" parent="WIyWlLk6GJQsqaUBKTNV-1" source="kXXIVfiEnRMr92jDZfJT-37" target="kXXIVfiEnRMr92jDZfJT-39">
          <mxGeometry relative="1" as="geometry" />
        </mxCell>
        <mxCell id="kXXIVfiEnRMr92jDZfJT-37" value="cost per sqft equals 4.99" style="whiteSpace=wrap;html=1;" vertex="1" parent="WIyWlLk6GJQsqaUBKTNV-1">
          <mxGeometry x="620" y="280" width="100" height="50" as="geometry" />
        </mxCell>
        <mxCell id="kXXIVfiEnRMr92jDZfJT-39" value="multiply area times cost per sqft" style="rounded=0;whiteSpace=wrap;html=1;" vertex="1" parent="WIyWlLk6GJQsqaUBKTNV-1">
          <mxGeometry x="500" y="380" width="120" height="60" as="geometry" />
        </mxCell>
        <mxCell id="kXXIVfiEnRMr92jDZfJT-43" value="if room_count is less than 5" style="rhombus;whiteSpace=wrap;html=1;" vertex="1" parent="WIyWlLk6GJQsqaUBKTNV-1">
          <mxGeometry x="140" y="20" width="80" height="80" as="geometry" />
        </mxCell>
        <mxCell id="kXXIVfiEnRMr92jDZfJT-44" style="edgeStyle=none;curved=1;rounded=0;orthogonalLoop=1;jettySize=auto;html=1;entryX=0.616;entryY=0.074;entryDx=0;entryDy=0;entryPerimeter=0;fontSize=12;startSize=8;endSize=8;" edge="1" parent="WIyWlLk6GJQsqaUBKTNV-1" source="kXXIVfiEnRMr92jDZfJT-45" target="kXXIVfiEnRMr92jDZfJT-3">
          <mxGeometry relative="1" as="geometry" />
        </mxCell>
        <mxCell id="kXXIVfiEnRMr92jDZfJT-47" value="ask user if they wish to calculate cost of another house" style="shape=parallelogram;perimeter=parallelogramPerimeter;whiteSpace=wrap;html=1;fixedSize=1;" vertex="1" parent="WIyWlLk6GJQsqaUBKTNV-1">
          <mxGeometry x="90" y="200" width="120" height="60" as="geometry" />
        </mxCell>
        <mxCell id="kXXIVfiEnRMr92jDZfJT-48" value="" style="edgeStyle=none;curved=1;rounded=0;orthogonalLoop=1;jettySize=auto;html=1;fontSize=12;startSize=8;endSize=8;" edge="1" parent="WIyWlLk6GJQsqaUBKTNV-1" source="kXXIVfiEnRMr92jDZfJT-19" target="kXXIVfiEnRMr92jDZfJT-27">
          <mxGeometry relative="1" as="geometry">
            <mxPoint x="-20" y="170" as="sourcePoint" />
            <mxPoint x="-20" y="230" as="targetPoint" />
          </mxGeometry>
        </mxCell>
        <mxCell id="kXXIVfiEnRMr92jDZfJT-27" value="No" style="text;strokeColor=none;fillColor=none;html=1;align=center;verticalAlign=middle;whiteSpace=wrap;rounded=0;fontSize=16;" vertex="1" parent="WIyWlLk6GJQsqaUBKTNV-1">
          <mxGeometry x="-50" y="180" width="60" height="30" as="geometry" />
        </mxCell>
        <mxCell id="kXXIVfiEnRMr92jDZfJT-49" value="" style="edgeStyle=none;curved=1;rounded=0;orthogonalLoop=1;jettySize=auto;html=1;fontSize=12;startSize=8;endSize=8;" edge="1" parent="WIyWlLk6GJQsqaUBKTNV-1" source="kXXIVfiEnRMr92jDZfJT-19" target="kXXIVfiEnRMr92jDZfJT-22">
          <mxGeometry relative="1" as="geometry">
            <mxPoint x="8" y="118" as="sourcePoint" />
            <mxPoint x="150" y="60" as="targetPoint" />
          </mxGeometry>
        </mxCell>
        <mxCell id="kXXIVfiEnRMr92jDZfJT-22" value="yes" style="text;strokeColor=none;fillColor=none;html=1;align=center;verticalAlign=middle;whiteSpace=wrap;rounded=0;fontSize=16;" vertex="1" parent="WIyWlLk6GJQsqaUBKTNV-1">
          <mxGeometry x="40" y="60" width="60" height="30" as="geometry" />
        </mxCell>
        <mxCell id="kXXIVfiEnRMr92jDZfJT-50" value="" style="edgeStyle=none;curved=1;rounded=0;orthogonalLoop=1;jettySize=auto;html=1;entryX=0.616;entryY=0.074;entryDx=0;entryDy=0;entryPerimeter=0;fontSize=12;startSize=8;endSize=8;" edge="1" parent="WIyWlLk6GJQsqaUBKTNV-1" source="kXXIVfiEnRMr92jDZfJT-43" target="kXXIVfiEnRMr92jDZfJT-45">
          <mxGeometry relative="1" as="geometry">
            <mxPoint x="199" y="81" as="sourcePoint" />
            <mxPoint x="294" y="184" as="targetPoint" />
          </mxGeometry>
        </mxCell>
        <mxCell id="kXXIVfiEnRMr92jDZfJT-45" value="yes" style="text;strokeColor=none;fillColor=none;html=1;align=center;verticalAlign=middle;whiteSpace=wrap;rounded=0;fontSize=16;" vertex="1" parent="WIyWlLk6GJQsqaUBKTNV-1">
          <mxGeometry x="220" y="115" width="60" height="30" as="geometry" />
        </mxCell>
        <mxCell id="kXXIVfiEnRMr92jDZfJT-52" style="edgeStyle=none;curved=1;rounded=0;orthogonalLoop=1;jettySize=auto;html=1;entryX=0.595;entryY=0.007;entryDx=0;entryDy=0;entryPerimeter=0;fontSize=12;startSize=8;endSize=8;" edge="1" parent="WIyWlLk6GJQsqaUBKTNV-1" source="kXXIVfiEnRMr92jDZfJT-54" target="kXXIVfiEnRMr92jDZfJT-47">
          <mxGeometry relative="1" as="geometry" />
        </mxCell>
        <mxCell id="kXXIVfiEnRMr92jDZfJT-53" style="edgeStyle=none;curved=1;rounded=0;orthogonalLoop=1;jettySize=auto;html=1;entryX=0.99;entryY=0.636;entryDx=0;entryDy=0;entryPerimeter=0;fontSize=12;startSize=8;endSize=8;" edge="1" parent="WIyWlLk6GJQsqaUBKTNV-1" source="kXXIVfiEnRMr92jDZfJT-47" target="kXXIVfiEnRMr92jDZfJT-19">
          <mxGeometry relative="1" as="geometry" />
        </mxCell>
        <mxCell id="kXXIVfiEnRMr92jDZfJT-55" value="" style="edgeStyle=none;curved=1;rounded=0;orthogonalLoop=1;jettySize=auto;html=1;entryX=0.595;entryY=0.007;entryDx=0;entryDy=0;entryPerimeter=0;fontSize=12;startSize=8;endSize=8;" edge="1" parent="WIyWlLk6GJQsqaUBKTNV-1" source="kXXIVfiEnRMr92jDZfJT-43" target="kXXIVfiEnRMr92jDZfJT-54">
          <mxGeometry relative="1" as="geometry">
            <mxPoint x="175" y="95" as="sourcePoint" />
            <mxPoint x="161" y="200" as="targetPoint" />
          </mxGeometry>
        </mxCell>
        <mxCell id="kXXIVfiEnRMr92jDZfJT-54" value="no" style="text;strokeColor=none;fillColor=none;html=1;align=center;verticalAlign=middle;whiteSpace=wrap;rounded=0;fontSize=16;" vertex="1" parent="WIyWlLk6GJQsqaUBKTNV-1">
          <mxGeometry x="150" y="130" width="60" height="30" as="geometry" />
        </mxCell>
        <mxCell id="kXXIVfiEnRMr92jDZfJT-56" value="" style="endArrow=classic;html=1;rounded=0;fontSize=12;startSize=8;endSize=8;curved=1;exitX=0.5;exitY=1;exitDx=0;exitDy=0;entryX=1.135;entryY=0.531;entryDx=0;entryDy=0;entryPerimeter=0;" edge="1" parent="WIyWlLk6GJQsqaUBKTNV-1" source="kXXIVfiEnRMr92jDZfJT-39" target="kXXIVfiEnRMr92jDZfJT-43">
          <mxGeometry width="50" height="50" relative="1" as="geometry">
            <mxPoint x="540" y="560" as="sourcePoint" />
            <mxPoint x="770" y="90" as="targetPoint" />
            <Array as="points">
              <mxPoint x="670" y="590" />
              <mxPoint x="870" y="190" />
              <mxPoint x="620" y="40" />
            </Array>
          </mxGeometry>
        </mxCell>
      </root>
    </mxGraphModel>
  </diagram>
</mxfile>
